<svg version="1.2" xmlns="http://www.w3.org/2000/svg" viewBox="0 0 431 90" width="144" height="30"><defs><linearGradient id="P" gradientUnits="userSpaceOnUse"/><linearGradient id="g1" x1="0" y1="0" x2="8100" y2="0" href="#P"><stop stop-color="#969495"/><stop offset="1" stop-color="#fff"/></linearGradient></defs><style>.a{fill:#fff}.b{fill:url(#g1)}</style><path fill-rule="evenodd" class="a" d="m114.8 60.8v-41h-4.8v-4.8h8.7c20.6 0 28.3 8 28.3 20 0 14.6-10.6 25.8-29 25.8zm5.9-40.9v35.9c11.9 0 20.1-9.2 20.1-20.6 0-9.6-5.3-14.9-20.1-15.3zm38.9-4.5v6.5h-5.9v-6.5zm0 14.2v22.4c0 2.8 0.8 4.3 3 4.3 0.6 0 1 0 1.7-0.1v4.7c-0.8 0-1.4 0.1-2.1 0.1-6.3 0-8.5-2.9-8.5-8.9v-22.5zm36.2 14.4v2.7h-22.2c0.7 6.7 4.6 9.9 11.2 9.9 2.7 0 6.8-0.6 10.4-1.8v4.9c-2.9 1.2-6.7 1.8-10.3 1.8-10.5 0-17.1-5.8-17.1-16.9 0-10.4 5.5-15.7 14.6-15.7 8.5 0 13.4 5.2 13.4 15.1zm-22.3-1.4h16.5c0-5.3-2.6-9.2-7.7-9.2-4.8 0-8.2 2.9-8.8 9.2zm50.2 14.5v-3c-2.3 5.2-5.9 7.4-10.8 7.4-6.7 0-11.8-4.1-11.8-14.7 0-11.6 5.7-17.9 16.4-17.9 3.6 0 8.8 0.7 12.1 2v26.2c0 13-6.4 17.9-17.7 17.9-3.5 0-7.4-0.4-10-1.2v-4.7c2.7 0.8 6.3 1.2 9.7 1.2 7.4 0 12.1-3.1 12.1-13.2zm0-22.2v-0.7c-2.2-0.4-4.2-0.7-6.1-0.7-6.7 0-10.5 4.3-10.5 12.9 0 7.4 2.8 10.2 7.1 10.2 4.4 0 9.2-3.3 9.5-21.7zm12.7 10.2c0-11 6-16.2 14.9-16.2 9 0 15 5.2 15 16.2 0 11.5-6.4 16.4-15 16.4-8.5 0-14.9-4.9-14.9-16.4zm14.9-11.5c-5.3 0-8.9 3.6-8.9 11.4 0 7.8 3.4 11.8 8.9 11.8 5.7 0 9-4 9-11.8 0-7.8-3.6-11.4-9-11.4zm37.2 27.2v-45.8h6.1l19.4 31.6c1 1.8 2.3 4.1 2.9 5.6-0.2-1.6-0.3-5.4-0.3-7.7v-29.5h5.5v45.8h-6.1l-19.2-31.5c-0.9-1.5-2.7-4.9-3.1-6.1 0.3 2 0.3 4.3 0.3 6.5v31.1zm64.5 0l-0.6-7.7c-2.2 5.3-5.9 8.3-12 8.3-6.8 0-9.5-3.9-9.5-10.7v-21.1h5.9v20c0 4.9 1.8 6.9 5.2 6.9 7.9 0 10.1-11.9 10.2-20.5v-6.4h5.9v31.2zm13.9 0v-31.2h5.7l0.1 9.8c2.4-6.7 6.5-10.5 13-10.5 6.1 0 8.5 4 8.5 10.7v21.2h-5.8v-19.2c0-5.6-1.4-7.8-4.6-7.8-7.4 0-10.8 11.7-10.9 24.2v2.8zm33.9-15.7c0-11 6-16.2 14.9-16.2 9 0 15 5.2 15 16.2 0 11.5-6.4 16.4-15 16.4-8.5 0-14.9-4.9-14.9-16.4zm14.9-11.5c-5.3 0-8.9 3.6-8.9 11.4 0 7.8 3.3 11.8 8.9 11.8 5.7 0 9-4 9-11.8 0-7.8-3.6-11.4-9-11.4z"/><path fill-rule="evenodd" class="b" d="m45.1 0l44.9 44.9-45.1 45.1-44.9-44.9zm20.6 44.9l-41.3 0.1 20.6 20.6z"/></svg>