<?xml version="1.0" standalone="no"?>
<!DOCTYPE svg PUBLIC "-//W3C//DTD SVG 1.0//EN" "http://www.w3.org/TR/2001/REC-SVG-20010904/DTD/svg10.dtd">
<svg xmlns="http://www.w3.org/2000/svg" xmlns:xlink="http://www.w3.org/1999/xlink" id="body_1" width="31" height="23">

<defs>
    <linearGradient transform="matrix(0.90630776 0.4226182 -0.4226182 0.90630776 0 0)"  id="1" x1="0" y1="0" x2="32" y2="0">
        <stop stop-color="#969495" offset="0%"/>
        <stop stop-color="#FFFFFF" offset="100%"/>
    </linearGradient>
</defs>

<g transform="matrix(0.07192575 0 0 0.07192575 -0 8.263342)">
	<g transform="matrix(4.67654 0 0 4.67654 108.222916 -1.9758383)">
        <path d="M2.09 13.43C 6.02 13.43 8.3 11.03 8.3 7.9C 8.3 5.33 6.65 3.63 2.23 3.63L2.23 3.63L0.38 3.63L0.38 4.66L1.41 4.66L1.41 13.43L2.09 13.43zM6.96 7.95C 6.96 10.39 5.22 12.35 2.67 12.35L2.67 12.35L2.67 4.68C 5.84 4.77 6.96 5.89 6.96 7.95zM9.73 3.72L9.73 5.1L11 5.1L11 3.72zM9.73 6.75L9.73 11.56C 9.73 12.85 10.21 13.47 11.55 13.47C 11.7 13.47 11.84 13.45 12 13.44L12 13.44L12 12.43C 11.86 12.46 11.76 12.46 11.63 12.46C 11.16 12.46 11 12.14 11 11.54L11 11.54L11 6.75zM15.88 6.61C 13.93 6.61 12.77 7.74 12.77 9.95C 12.77 12.33 14.18 13.57 16.42 13.57C 17.18 13.57 18 13.44 18.63 13.19L18.63 13.19L18.63 12.15C 17.85 12.4 16.98 12.52 16.39 12.52C 14.98 12.52 14.15 11.84 14 10.4L14 10.4L18.75 10.4L18.75 9.83C 18.75 7.71 17.71 6.61 15.88 6.61zM15.86 7.56C 16.95 7.56 17.5 8.4 17.5 9.53L17.5 9.53L13.99 9.53C 14.1 8.18 14.83 7.56 15.86 7.56zM22.13 15.46C 21.39 15.46 20.62 15.37 20.06 15.2L20.06 15.2L20.06 16.2C 20.61 16.37 21.45 16.46 22.18 16.46C 24.6 16.46 25.97 15.41 25.97 12.64L25.97 12.64L25.97 7.03C 25.27 6.75 24.15 6.61 23.38 6.61C 21.1 6.61 19.88 7.94 19.88 10.42C 19.88 12.7 20.97 13.57 22.41 13.57C 23.46 13.57 24.23 13.1 24.71 12L24.71 12L24.71 12.63C 24.71 14.8 23.7 15.46 22.13 15.46zM22.68 12.52C 21.77 12.52 21.17 11.93 21.17 10.35C 21.17 8.5 21.98 7.59 23.42 7.59C 23.81 7.59 24.25 7.64 24.71 7.73L24.71 7.73L24.71 7.88C 24.65 11.83 23.63 12.52 22.68 12.52zM30.62 13.57C 32.45 13.57 33.82 12.53 33.82 10.07C 33.82 7.71 32.55 6.61 30.62 6.61C 28.71 6.61 27.43 7.71 27.43 10.07C 27.43 12.53 28.8 13.57 30.62 13.57zM32.55 10.05C 32.55 11.72 31.84 12.57 30.62 12.57C 29.43 12.57 28.71 11.72 28.71 10.05C 28.71 8.37 29.48 7.6 30.62 7.6C 31.78 7.6 32.55 8.37 32.55 10.05zM39.75 13.43L39.75 6.78C 39.75 6.3 39.75 5.82 39.69 5.38C 39.77 5.64 40.15 6.36 40.35 6.68L40.35 6.68L44.45 13.43L45.75 13.43L45.75 3.63L44.58 3.63L44.58 9.94C 44.58 10.43 44.59 11.24 44.65 11.59C 44.52 11.27 44.24 10.77 44.02 10.39L44.02 10.39L39.87 3.63L38.57 3.63L38.57 13.43zM53.45 13.43L53.45 6.75L52.19 6.75L52.19 8.13C 52.16 9.97 51.69 12.5 50.01 12.5C 49.27 12.5 48.9 12.08 48.9 11.02L48.9 11.02L48.9 6.75L47.64 6.75L47.64 11.27C 47.64 12.71 48.2 13.55 49.66 13.55C 50.97 13.55 51.77 12.91 52.22 11.77L52.22 11.77L52.35 13.43zM56.6 13.43L56.6 12.82C 56.63 10.15 57.36 7.66 58.94 7.66C 59.61 7.66 59.91 8.13 59.91 9.31L59.91 9.31L59.91 13.43L61.15 13.43L61.15 8.9C 61.15 7.46 60.65 6.61 59.35 6.61C 57.96 6.61 57.08 7.41 56.57 8.85L56.57 8.85L56.55 6.75L55.33 6.75L55.33 13.43zM65.77 13.57C 67.61 13.57 68.98 12.53 68.98 10.07C 68.98 7.71 67.7 6.61 65.77 6.61C 63.87 6.61 62.58 7.71 62.58 10.07C 62.58 12.53 63.95 13.57 65.77 13.57zM67.7 10.05C 67.7 11.72 66.99 12.57 65.77 12.57C 64.58 12.57 63.87 11.72 63.87 10.05C 63.87 8.37 64.64 7.6 65.77 7.6C 66.93 7.6 67.7 8.37 67.7 10.05z" stroke="none" fill="#FFFFFF" fill-rule="nonzero" />
	</g>
	<g transform="matrix(2.8125 0 0 2.8125 0 0)">
        <path d="M0 16.024L15.976 32L32 15.976L16.024 0L0 16.024zM15.989 23.347L8.653 16.011L23.347 15.988999L15.989 23.347z" stroke="none" fill="url(#1)" />
	</g>
</g>
</svg>