<svg data-v-423bf9ae="" xmlns="http://www.w3.org/2000/svg" viewBox="0 0 320.8106544532915 60" class="font"><!----><!----><!----><g data-v-423bf9ae="" id="7ef2e594-7bee-4f53-b8bb-fb8cbf95de6b" fill="white" transform="matrix(4.676539736296766,0,0,4.676539736296766,-1.7770828286330698,-16.97584025478192)"><path d="M2.09 13.43C6.02 13.43 8.30 11.03 8.30 7.90C8.30 5.33 6.65 3.63 2.23 3.63L0.38 3.63L0.38 4.66L1.41 4.66L1.41 13.43ZM6.96 7.95C6.96 10.39 5.22 12.35 2.67 12.35L2.67 4.68C5.84 4.77 6.96 5.89 6.96 7.95ZM9.73 3.72L9.73 5.10L11.00 5.10L11.00 3.72ZM9.73 6.75L9.73 11.56C9.73 12.85 10.21 13.47 11.55 13.47C11.70 13.47 11.84 13.45 12.00 13.44L12.00 12.43C11.86 12.46 11.76 12.46 11.63 12.46C11.16 12.46 11.00 12.14 11.00 11.54L11.00 6.75ZM15.88 6.61C13.93 6.61 12.77 7.74 12.77 9.95C12.77 12.33 14.18 13.57 16.42 13.57C17.18 13.57 18.00 13.44 18.63 13.19L18.63 12.15C17.85 12.40 16.98 12.52 16.39 12.52C14.98 12.52 14.15 11.84 14 10.40L18.75 10.40L18.75 9.83C18.75 7.71 17.71 6.61 15.88 6.61ZM15.86 7.56C16.95 7.56 17.50 8.40 17.50 9.53L13.99 9.53C14.10 8.18 14.83 7.56 15.86 7.56ZM22.13 15.46C21.39 15.46 20.62 15.37 20.06 15.20L20.06 16.20C20.61 16.37 21.45 16.46 22.18 16.46C24.60 16.46 25.97 15.41 25.97 12.64L25.97 7.03C25.27 6.75 24.15 6.61 23.38 6.61C21.10 6.61 19.88 7.94 19.88 10.42C19.88 12.70 20.97 13.57 22.41 13.57C23.46 13.57 24.23 13.10 24.71 12.00L24.71 12.63C24.71 14.80 23.70 15.46 22.13 15.46ZM22.68 12.52C21.77 12.52 21.17 11.93 21.17 10.35C21.17 8.50 21.98 7.59 23.42 7.59C23.81 7.59 24.25 7.64 24.71 7.73L24.71 7.88C24.65 11.83 23.63 12.52 22.68 12.52ZM30.62 13.57C32.45 13.57 33.82 12.53 33.82 10.07C33.82 7.71 32.55 6.61 30.62 6.61C28.71 6.61 27.43 7.71 27.43 10.07C27.43 12.53 28.80 13.57 30.62 13.57ZM32.55 10.05C32.55 11.72 31.84 12.57 30.62 12.57C29.43 12.57 28.71 11.72 28.71 10.05C28.71 8.37 29.48 7.60 30.62 7.60C31.78 7.60 32.55 8.37 32.55 10.05ZM39.75 13.43L39.75 6.78C39.75 6.30 39.75 5.82 39.69 5.38C39.77 5.64 40.15 6.36 40.35 6.68L44.45 13.43L45.75 13.43L45.75 3.63L44.58 3.63L44.58 9.94C44.58 10.43 44.59 11.24 44.65 11.59C44.52 11.27 44.24 10.77 44.02 10.39L39.87 3.63L38.57 3.63L38.57 13.43ZM53.45 13.43L53.45 6.75L52.19 6.75L52.19 8.13C52.16 9.97 51.69 12.50 50.01 12.50C49.27 12.50 48.90 12.08 48.90 11.02L48.90 6.75L47.64 6.75L47.64 11.27C47.64 12.71 48.20 13.55 49.66 13.55C50.97 13.55 51.77 12.91 52.22 11.77L52.35 13.43ZM56.60 13.43L56.60 12.82C56.63 10.15 57.36 7.66 58.94 7.66C59.61 7.66 59.91 8.13 59.91 9.31L59.91 13.43L61.15 13.43L61.15 8.90C61.15 7.46 60.65 6.61 59.35 6.61C57.96 6.61 57.08 7.41 56.57 8.85L56.55 6.75L55.33 6.75L55.33 13.43ZM65.77 13.57C67.61 13.57 68.98 12.53 68.98 10.07C68.98 7.71 67.70 6.61 65.77 6.61C63.87 6.61 62.58 7.71 62.58 10.07C62.58 12.53 63.95 13.57 65.77 13.57ZM67.70 10.05C67.70 11.72 66.99 12.57 65.77 12.57C64.58 12.57 63.87 11.72 63.87 10.05C63.87 8.37 64.64 7.60 65.77 7.60C66.93 7.60 67.70 8.37 67.70 10.05Z"></path></g><!----><!----></svg>